<svg xmlns="http://www.w3.org/2000/svg" width="1920" height="924" fill="none" viewBox="0 0 1920 924"><path fill="#fafafa" d="M1920 924h-80v-51H80v51H0V0h1920zM87 272v354h58.804V510.191l37.192-39.951L305.631 626H377L222.702 427.76 367.953 272h-72.374L145.804 435.346V272zm1340 0v231.5c0 24.333 5.22 45.833 15.67 64.5 10.81 18.333 25.93 32.667 45.38 43 19.46 10 41.79 15 67 15h57.82c25.57 0 48.08-5 67.54-15 19.45-10.333 34.57-24.667 45.38-43 10.81-18.667 16.21-40.167 16.21-64.5V272h-63.22v230.5c0 21.667-6.12 39.167-18.37 52.5-11.88 13-27.73 19.5-47.54 19.5h-57.82c-19.45 0-35.12-6.5-47-19.5-11.89-13.333-17.83-30.833-17.83-52.5V272zm-1024 0v307.5q0 19 11.926 31Q427.37 622 447.593 622H669v-50.5H463.667v-103h186.777v-51H463.667v-95H669V272zm298 0v350h56.9V367l176.193 255H987V272h-56.9v256L753.408 272zm321 0v50h265.65L1015 594v28h375v-50h-259.9l265.92-267.934V272zm752 0v350h59V272z"/></svg>